<?xml version="1.0" encoding="utf-8"?>
<!-- Generator: Adobe Illustrator 25.2.0, SVG Export Plug-In . SVG Version: 6.00 Build 0)  -->
<svg version="1.1" id="Camada_1" xmlns="http://www.w3.org/2000/svg" xmlns:xlink="http://www.w3.org/1999/xlink" x="0px" y="0px"
	 viewBox="0 0 48 48" style="enable-background:new 0 0 48 48;" xml:space="preserve">
<style type="text/css">
	.st0{fill:#161616;}
	.st1{fill:#FFFFFF;}
	.st2{fill:#009900;}
</style>
<g>
	<path class="st0" d="M0,0h48v48H0V0z"/>
</g>
<path class="st1" d="M9,40c-2.1-2-3.1-4.7-3.1-8.1V16.1c0-3.3,1-6,3.1-8.1c2.1-2.1,4.8-3.1,8.3-3.1c2.3,0,4.3,0.5,6.1,1.4
	c1.8,0.9,3.1,2.2,4.1,3.7c0.9,1.5,1.4,3.2,1.4,5.1v0.7c0,0.5-0.2,0.7-0.7,0.7l-3.7,0.1c-0.5,0-0.7-0.2-0.7-0.7v-0.5
	c0-1.6-0.6-3-1.8-4.2c-1.2-1.2-2.7-1.8-4.6-1.8c-1.9,0-3.3,0.6-4.5,1.9c-1.1,1.3-1.7,3-1.7,5.1v15.1c0,2.1,0.6,3.8,1.7,5.1
	c1.1,1.3,2.6,1.9,4.5,1.9c1.9,0,3.4-0.6,4.6-1.8c1.2-1.2,1.8-2.6,1.8-4.2V32c0-0.5,0.2-0.7,0.7-0.7l3.7,0.1c0.5,0,0.7,0.2,0.7,0.7
	v0.8c0,2.9-1.1,5.3-3.2,7.3s-4.9,2.9-8.4,2.9S11.1,42,9,40z"/>
<path class="st2" d="M35.1,41.9c-0.8-0.8-1.1-1.8-1.1-2.9c0-1.2,0.4-2.2,1.1-3c0.8-0.8,1.7-1.1,3-1.1c1.2,0,2.1,0.4,2.9,1.1
	c0.8,0.8,1.2,1.7,1.2,3c0,1.2-0.4,2.1-1.2,2.9c-0.8,0.8-1.8,1.2-2.9,1.2C36.8,43.1,35.8,42.7,35.1,41.9z"/>
</svg>
