<?xml version="1.0" encoding="utf-8"?>
<!-- Generator: Adobe Illustrator 25.2.0, SVG Export Plug-In . SVG Version: 6.00 Build 0)  -->
<svg version="1.1" id="Camada_1" xmlns="http://www.w3.org/2000/svg" xmlns:xlink="http://www.w3.org/1999/xlink" x="0px" y="0px"
	 viewBox="0 0 90 23" style="enable-background:new 0 0 90 23;" xml:space="preserve">
<style type="text/css">
	.st0{fill:#FFFFFF;}
	.st1{fill:#009900;}
</style>
<g>
	<path class="st0" d="M1.7,21.3c-1-1-1.5-2.3-1.5-3.9V9.8c0-1.6,0.5-2.9,1.5-3.9c1-1,2.3-1.5,4-1.5c1.1,0,2.1,0.2,2.9,0.7
		c0.8,0.4,1.5,1,2,1.8c0.5,0.7,0.7,1.6,0.7,2.5v0.4c0,0.2-0.1,0.4-0.4,0.4l-1.8,0.1c-0.2,0-0.4-0.1-0.4-0.4V9.5c0-0.8-0.3-1.5-0.9-2
		C7.3,6.9,6.6,6.6,5.7,6.6C4.8,6.6,4,6.9,3.5,7.5C2.9,8.1,2.7,8.9,2.7,10v7.3c0,1,0.3,1.8,0.8,2.5c0.6,0.6,1.3,0.9,2.2,0.9
		c0.9,0,1.6-0.3,2.2-0.9c0.6-0.6,0.9-1.3,0.9-2v-0.2c0-0.2,0.1-0.4,0.4-0.4l1.8,0c0.2,0,0.4,0.1,0.4,0.4v0.4c0,1.4-0.5,2.6-1.5,3.5
		s-2.4,1.4-4,1.4S2.7,22.3,1.7,21.3z"/>
	<path class="st0" d="M23.9,6c1,1.1,1.5,2.5,1.5,4.3v11.9c0,0.2-0.1,0.4-0.4,0.4h-1.8c-0.2,0-0.4-0.1-0.4-0.4v-1.1
		c0,0,0-0.1-0.1-0.1c0,0-0.1,0-0.1,0.1c-0.9,1.2-2.2,1.7-3.9,1.7c-1.3,0-2.4-0.4-3.4-1.1c-1-0.7-1.4-2.1-1.4-3.9
		c0-2,0.6-3.5,1.7-4.4c1.2-0.9,2.7-1.4,4.5-1.4h2.5c0.1,0,0.1,0,0.1-0.1v-1.4c0-1.2-0.3-2.1-0.8-2.8c-0.5-0.7-1.3-1.1-2.2-1.1
		c-0.7,0-1.3,0.2-1.8,0.7c-0.5,0.5-0.8,1.1-0.9,1.8c0,0.2-0.1,0.4-0.4,0.4l-2,0c-0.1,0-0.2,0-0.3-0.1c-0.1-0.1-0.1-0.2-0.1-0.2
		c0.1-1.4,0.7-2.5,1.7-3.4c1-0.9,2.3-1.3,3.7-1.3C21.6,4.4,22.9,4.9,23.9,6z M21.8,19.7c0.7-0.6,1.1-1.5,1.1-2.6v-3
		c0-0.1,0-0.1-0.1-0.1h-2.5c-1.1,0-2,0.3-2.7,0.9c-0.7,0.6-1,1.5-1,2.7c0,1,0.3,1.8,0.8,2.3c0.5,0.5,1.2,0.8,2,0.8
		C20.3,20.6,21.1,20.3,21.8,19.7z"/>
	<path class="st0" d="M30.4,21.3c-1-1-1.5-2.3-1.5-3.9V9.8c0-1.6,0.5-2.9,1.5-3.9c1-1,2.3-1.5,4-1.5c1.1,0,2.1,0.2,2.9,0.7
		c0.8,0.4,1.5,1,2,1.8C39.7,7.6,40,8.4,40,9.3v0.4c0,0.2-0.1,0.4-0.4,0.4l-1.8,0.1c-0.2,0-0.4-0.1-0.4-0.4V9.5c0-0.8-0.3-1.5-0.9-2
		c-0.6-0.6-1.3-0.9-2.2-0.9c-0.9,0-1.6,0.3-2.2,0.9c-0.6,0.6-0.8,1.4-0.8,2.5v7.3c0,1,0.3,1.8,0.8,2.5c0.6,0.6,1.3,0.9,2.2,0.9
		c0.9,0,1.6-0.3,2.2-0.9c0.6-0.6,0.9-1.3,0.9-2v-0.2c0-0.2,0.1-0.4,0.4-0.4l1.8,0c0.2,0,0.4,0.1,0.4,0.4v0.4c0,1.4-0.5,2.6-1.5,3.5
		s-2.4,1.4-4,1.4S31.4,22.3,30.4,21.3z"/>
	<path class="st0" d="M49.3,6.5h-2.7c-0.1,0-0.1,0-0.1,0.1v10.8c0,1.1,0.2,1.8,0.6,2.2s1,0.6,1.7,0.6h0.4c0.2,0,0.4,0.1,0.4,0.4v1.5
		c0,0.2-0.1,0.4-0.4,0.4h-0.9c-1.4,0-2.4-0.3-3.2-0.9C44.3,21,44,19.9,44,18.2V6.7c0-0.1,0-0.1-0.1-0.1h-1.4c-0.2,0-0.4-0.1-0.4-0.4
		V5c0-0.2,0.1-0.4,0.4-0.4h1.4c0.1,0,0.1,0,0.1-0.1V0.6c0-0.2,0.1-0.4,0.4-0.4h1.8c0.2,0,0.4,0.1,0.4,0.4v3.9c0,0.1,0,0.1,0.1,0.1
		h2.7c0.2,0,0.4,0.1,0.4,0.4v1.2C49.6,6.4,49.5,6.5,49.3,6.5z"/>
	<path class="st0" d="M53.9,21.3c-1-1-1.5-2.3-1.5-3.9V9.8c0-1.6,0.5-2.9,1.5-3.9c1-1,2.3-1.5,4-1.5c1.7,0,3,0.5,4.1,1.5
		c1,1,1.5,2.3,1.5,3.9v7.6c0,1.6-0.5,2.9-1.5,3.9c-1,1-2.4,1.5-4.1,1.5S54.9,22.3,53.9,21.3z M60.1,19.6c0.6-0.6,0.9-1.4,0.9-2.4V10
		c0-1-0.3-1.8-0.9-2.5c-0.6-0.6-1.3-0.9-2.2-0.9s-1.6,0.3-2.2,0.9c-0.6,0.6-0.8,1.4-0.8,2.5v7.3c0,1,0.3,1.8,0.8,2.4
		s1.3,0.9,2.2,0.9S59.5,20.3,60.1,19.6z"/>
	<path class="st1" d="M66.9,21.9c-0.4-0.4-0.5-0.8-0.5-1.4c0-0.6,0.2-1.1,0.5-1.4c0.4-0.4,0.8-0.5,1.4-0.5c0.6,0,1,0.2,1.4,0.5
		s0.6,0.8,0.6,1.4c0,0.6-0.2,1-0.6,1.4s-0.8,0.6-1.4,0.6C67.8,22.4,67.3,22.2,66.9,21.9z"/>
</g>
</svg>
